<svg width="24px" height="24px" viewBox="0 0 24 24" stroke="currentColor" xmlns="http://www.w3.org/2000/svg">
  <path d="M12 2.25C6.624 2.25 2.25 6.624 2.25 12C2.25 17.376 6.624 21.75 12 21.75C17.376 21.75 21.75 17.376 21.75 12C21.75 6.624 17.376 2.25 12 2.25zM12 3.75C16.549 3.75 20.25 7.451 20.25 12C20.25 16.549 16.549 20.25 12 20.25C7.451 20.25 3.75 16.549 3.75 12C3.75 7.451 7.451 3.75 12 3.75zM10.037 9L7.037 15L13.963 15L16.963 9L10.037 9zM10.963 10.5L14.537 10.5L13.037 13.5L9.463 13.5L10.963 10.5z"/>
</svg>
